<?xml version="1.0" encoding="utf-8"?><svg xmlns="http://www.w3.org/2000/svg" xmlns:xlink="http://www.w3.org/1999/xlink" width="1536" height="750" preserveAspectRatio="xMidYMid" viewBox="0 0 1536 750" style="z-index:1;margin-right:-2px;display:block;background-repeat-y:initial;background-repeat-x:initial;background-color:rgb(241, 242, 243);animation-play-state:paused" ><g transform="translate(768,375) scale(1,1) translate(-768,-375)" style="transform:matrix(1, 0, 0, 1, 0, 0);animation-play-state:paused" ><linearGradient id="lg-0.7335072577041553" x1="0" x2="1" y1="0" y2="0" style="animation-play-state:paused" ><stop stop-color="#51d823" offset="0" style="animation-play-state:paused" ></stop>

  
<stop stop-color="#b5f05a" offset="1" style="animation-play-state:paused" ></stop></linearGradient>
<path d="M 0 0 L 0 679.376 Q 153.6 677.301 307.2 635.236 T 614.4 505.533 T 921.6 360.247 T 1228.8 281.448 T 1536 384.132 L 1536 0 Z" fill="url(#lg-0.7335072577041553)" opacity="0.4" style="opacity:0.4;animation-play-state:paused" ></path>
<path d="M 0 0 L 0 703.499 Q 153.6 616.835 307.2 590.152 T 614.4 564.69 T 921.6 404.469 T 1228.8 363.932 T 1536 231.451 L 1536 0 Z" fill="url(#lg-0.7335072577041553)" opacity="0.4" style="opacity:0.4;animation-play-state:paused" ></path>
<path d="M 0 0 L 0 626.084 Q 153.6 558.108 307.2 541.402 T 614.4 576.91 T 921.6 488.096 T 1228.8 458.072 T 1536 391.417 L 1536 0 Z" fill="url(#lg-0.7335072577041553)" opacity="0.4" style="opacity:0.4;animation-play-state:paused" ></path>
<path d="M 0 0 L 0 728.191 Q 153.6 611.307 307.2 581.628 T 614.4 480.898 T 921.6 459.449 T 1228.8 299.371 T 1536 404.443 L 1536 0 Z" fill="url(#lg-0.7335072577041553)" opacity="0.4" style="opacity:0.4;animation-play-state:paused" ></path>
<path d="M 0 0 L 0 678.149 Q 153.6 632.842 307.2 590.802 T 614.4 558.653 T 921.6 513.015 T 1228.8 378.425 T 1536 300.265 L 1536 0 Z" fill="url(#lg-0.7335072577041553)" opacity="0.4" style="opacity:0.4;animation-play-state:paused" ></path></g></svg>