<?xml version="1.0" encoding="utf-8"?><svg xmlns="http://www.w3.org/2000/svg" xmlns:xlink="http://www.w3.org/1999/xlink" width="1536" height="817" preserveAspectRatio="xMidYMid" viewBox="0 0 1536 817" style="z-index:1;margin-right:-2px;display:block;background-repeat-y:initial;background-repeat-x:initial;background-color:rgba(241, 242, 243,0);animation-play-state:paused" ><g transform="translate(768,408.5) scale(1,1) translate(-768,-408.5)" style="transform:matrix(1, 0, 0, 1, 0, 0);animation-play-state:paused" ><linearGradient id="lg-0.03165187706502626" x1="0" x2="1" y1="0" y2="0" style="animation-play-state:paused" ><stop stop-color="#3532ff" offset="0" style="animation-play-state:paused" ></stop>


<stop stop-color="#72ccff" offset="1" style="animation-play-state:paused" ></stop></linearGradient>
<path d="M 0 0 L 0 745.899 Q 153.6 732.978 307.2 704.403 T 614.4 529.071 T 921.6 459.513 T 1228.8 463.136 T 1536 452.156 L 1536 0 Z" fill="url(#lg-0.03165187706502626)" opacity="0.4" style="opacity:0.4;animation-play-state:paused" ></path>
<path d="M 0 0 L 0 737.769 Q 153.6 684.096 307.2 653.695 T 614.4 628.701 T 921.6 498.477 T 1228.8 456.838 T 1536 432.92 L 1536 0 Z" fill="url(#lg-0.03165187706502626)" opacity="0.4" style="opacity:0.4;animation-play-state:paused" ></path>
<path d="M 0 0 L 0 735.888 Q 153.6 698.885 307.2 673.069 T 614.4 543.935 T 921.6 559.415 T 1228.8 468.788 T 1536 404.427 L 1536 0 Z" fill="url(#lg-0.03165187706502626)" opacity="0.4" style="opacity:0.4;animation-play-state:paused" ></path>
<path d="M 0 0 L 0 734.372 Q 153.6 687.23 307.2 665.392 T 614.4 559.727 T 921.6 536.182 T 1228.8 490.558 T 1536 386.739 L 1536 0 Z" fill="url(#lg-0.03165187706502626)" opacity="0.4" style="opacity:0.4;animation-play-state:paused" ></path>
<path d="M 0 0 L 0 679.466 Q 153.6 700.926 307.2 676.764 T 614.4 571.043 T 921.6 540.317 T 1228.8 431.525 T 1536 374.114 L 1536 0 Z" fill="url(#lg-0.03165187706502626)" opacity="0.4" style="opacity:0.4;animation-play-state:paused" ></path></g></svg>
