<?xml version="1.0" encoding="utf-8"?><svg xmlns="http://www.w3.org/2000/svg" xmlns:xlink="http://www.w3.org/1999/xlink" width="1536" height="762" preserveAspectRatio="xMidYMid" viewBox="0 0 1536 762" style="z-index:1;margin-right:-2px;display:block;background-repeat-y:initial;background-repeat-x:initial;animation-play-state:paused" ><g transform="translate(768,381) scale(1,1) translate(-768,-381)" style="transform:matrix(1, 0, 0, 1, 0, 0);animation-play-state:paused" ><linearGradient id="lg-0.09964199920631378" x1="0" x2="1" y1="0" y2="0" style="animation-play-state:paused" ><stop stop-color="#4965ff" offset="0" style="animation-play-state:paused" ></stop>

  
<stop stop-color="#00ffff" offset="1" style="animation-play-state:paused" ></stop></linearGradient>
<path d="M 0 0 L 0 792.362 Q 153.6 599.163 307.2 578.467 T 614.4 570.409 T 921.6 469.591 T 1228.8 258.417 T 1536 229.688 L 1536 0 Z" fill="url(#lg-0.09964199920631378)" opacity="0.4" style="opacity:0.4;animation-play-state:paused" ></path>
<path d="M 0 0 L 0 768.194 Q 153.6 714.636 307.2 676.47 T 614.4 515.724 T 921.6 452.2 T 1228.8 311.38 T 1536 280.825 L 1536 0 Z" fill="url(#lg-0.09964199920631378)" opacity="0.4" style="opacity:0.4;animation-play-state:paused" ></path>
<path d="M 0 0 L 0 813.981 Q 153.6 646.448 307.2 610.037 T 614.4 537.652 T 921.6 388.44 T 1228.8 343.078 T 1536 192.296 L 1536 0 Z" fill="url(#lg-0.09964199920631378)" opacity="0.4" style="opacity:0.4;animation-play-state:paused" ></path>
<path d="M 0 0 L 0 703.413 Q 153.6 648.633 307.2 632.263 T 614.4 463.205 T 921.6 432.522 T 1228.8 332.479 T 1536 243.942 L 1536 0 Z" fill="url(#lg-0.09964199920631378)" opacity="0.4" style="opacity:0.4;animation-play-state:paused" ></path>
<path d="M 0 0 L 0 717.619 Q 153.6 663.15 307.2 625.184 T 614.4 541.241 T 921.6 407.798 T 1228.8 375.556 T 1536 228.563 L 1536 0 Z" fill="url(#lg-0.09964199920631378)" opacity="0.4" style="opacity:0.4;animation-play-state:paused" ></path></g></svg>